<svg width="96" height="96" fill="none" xmlns="http://www.w3.org/2000/svg"><circle cx="48" cy="48" r="48" fill="#FCB72B"/><path fill-rule="evenodd" clip-rule="evenodd" d="M64 46h2l1-1v-5l-1-1h-6l-1-2v-2l-1-1h-4l-1 1v2l1 1h4l1 2v4a2 2 0 0 0-4 0v-1l-1-1h-5l-2-1V31c0-2-2-3-3-3h-3c-1 0-2 1-2 3v7h-4l-2 2v2h-4a1 1 0 0 0-1 1l2 2-2 1a1 1 0 0 0 1 1h6l2-2v-2h2v7h-2c-3 0-5 2-5 4h-2l-1 1v2l1 1h2v1h-3l-1 1v3h8a5 5 0 1 0 9 0h12a5 5 0 1 0 10 0 1 1 0 0 0 1 0l-4-17Zm-9-2a2 2 0 1 0 4 0v14h-2v-1l-2-2v-7l-1-1h-7v-1h7l1-1v-1Zm2-7h-2v-2h2v2ZM32 62v-1h-3v1h3Zm0-5h-1v-2h1v2Zm33-16h-1v4h1v-4Zm-5 0h3v4h-3v-4Zm-5 16h-3v1h3v-1Zm-6-14h4v2h-4l-5-2v-1l5 1Zm-8-14-1 2v2h2v-1l1-1h2l-1-2h-3Zm-1 6h3v-2h2v1l-5 2v-1Zm5 4v-3l-5 1v2h5Zm0 1v1h-2v4h2v2h-5v-7h5Zm8 15v-6H40v1h11l1 1v4h1ZM36 45l-1 1h-5l1-1v-1l-1-1h6v2Zm-1-5v2h4v-3h-4v1Zm6 27c-2 0-4-2-4-4h2a2 2 0 1 0 4 0h1c0 2-1 4-3 4Zm0-3v-1h-1l1 1Zm4-2h-9v-7h9v7Zm2 0h1v-7c0-2-1-4-3-4h-8c-2 0-4 2-4 4v7h2v-7l2-2h8l2 2v7Zm1-11h3v7h-2v-3l-1-4Zm14 16c-2 0-3-2-3-4h1a2 2 0 1 0 4 0h1c0 2-1 4-3 4Zm0-3 1-1h-2l1 1Zm-2-2v-5h1v-1h-1V46h3l3 16h-6Zm-11 0h10v-3H49v3Zm15-6h-1v1h1v-1Zm-27 0h2v1h-2v-1Zm4 0h-1v1h1v-1Zm2 0h1v1h-1v-1Zm14-13a1 1 0 1 1 0 2 1 1 0 0 1 0-2ZM28 33h9v1h-9v-1Zm9 2h-8v2h8v-2Z" fill="#495567"/></svg>