<svg width="96" height="96" fill="none" xmlns="http://www.w3.org/2000/svg"><circle cx="48" cy="48" r="48" fill="#FCB72B"/><path fill-rule="evenodd" clip-rule="evenodd" d="M54 24H33c-2 0-4 2-4 4v40c0 2 2 4 4 4h20v-1c0-4 1-8 3-11v-1l-6-5a3 3 0 0 1 1-4h3l8 8 1-1-5-5V28c0-2-2-4-4-4Zm2 26-1-1c-1-1-4-2-5 0a4 4 0 0 0-1 6l5 5c-2 3-3 7-3 10H33l-2-2v-2h20v-2H31V30h25v20ZM31 29h25v-1l-2-2H33l-2 2v1Zm29 14-1 1 5 4 2 4v20h1V52c0-2 0-4-2-5l-5-4Zm-26-5h3l2-1v-3l-2-2h-3l-2 2v3l2 1Zm0-4h3v3h-3v-3Zm11 4h-3l-2-1v-3l2-2h3l2 2v3l-2 1Zm0-4h-3v3h3v-3Zm5 4h3l2-1v-3l-2-2h-3l-2 2v3l2 1Zm0-4h3v3h-3v-3ZM37 46h-3l-2-1v-3l2-2h3l2 2v3l-2 1Zm0-4h-3v3h3v-3Zm-3 12h3l2-1v-3l-2-2h-3l-2 2v3l2 1Zm0-4h3v3h-3v-3Zm11-4h-3l-2-1v-3l2-2h3l2 2v3l-2 1Zm0-4h-3v3h3v-3Zm5 4h3l2-1v-3l-2-2h-3l-2 2v3l2 1Zm0-4h3v3h-3v-3Zm-5 12h-3l-2-1v-3l2-2h3l2 2v3l-2 1Zm0-4h-3v3h3v-3ZM34 62h3l2-1v-3l-2-2h-3l-2 2v3l2 1Zm0-4h3v3h-3v-3Zm11 4h-3l-2-1v-3l2-2h3l2 2v3l-2 1Zm0-4h-3v3h3v-3Zm-1 9h-1v2h1v-2Z" fill="#495567"/></svg>