<svg width="108" height="29" fill="none" xmlns="http://www.w3.org/2000/svg"><path fill-rule="evenodd" clip-rule="evenodd" d="M107 23v5h-8a3 3 0 0 1-3-3V13h-6V8h6V0h5v8h7v5h-7v9l1 1h5ZM9 29l6-2c2-1 2-3 2-5s0-3-2-4c-1-1-2-2-5-2l-3-1-1-1v-1l2-1 3 1 1 1 4-1v-2l-2-2-2-1a10 10 0 0 0-9 1l-1 2-1 3 2 4 5 2h2l2 1v2l-3 1-3-1-1-2-5 1 1 2 1 2 3 2 4 1Zm23 0c2 0 5-1 6-3l4-5-5-2-2 4-4 1-2-1a5 5 0 0 1-2-2l-1-3 1-2 1-2a5 5 0 0 1 3-2l4 2 2 3 5-2-4-5c-1-2-4-2-6-2h-4a10 10 0 0 0-7 10l1 5a9 9 0 0 0 5 5l5 1Zm26-1a11 11 0 0 1-11-2l-2-3-1-5 1-4a10 10 0 0 1 5-6 11 11 0 0 1 11 2l3 4v9a9 9 0 0 1-6 5Zm-4-4-2-1a5 5 0 0 1-3-5v-3a5 5 0 0 1 3-2 6 6 0 0 1 6 1l1 1v6a5 5 0 0 1-3 2l-2 1Zm27 4a11 11 0 0 1-11-2l-3-3-1-5 1-4a10 10 0 0 1 6-6 11 11 0 0 1 11 2l2 4 1 4-1 5a9 9 0 0 1-5 5Zm-4-4-2-1a5 5 0 0 1-4-5l1-3a5 5 0 0 1 3-2 6 6 0 0 1 5 1l2 1v6a5 5 0 0 1-3 2l-2 1Z" fill="#495567"/></svg>