<svg width="96" height="96" fill="none" xmlns="http://www.w3.org/2000/svg"><circle cx="48" cy="48" r="48" fill="#FCB72B"/><path d="M45 62a1 1 0 0 0-1 1 1 1 0 0 0 1 1 1 1 0 0 0 1-1 1 1 0 0 0-1-1Z" fill="#000"/><path fill-rule="evenodd" clip-rule="evenodd" d="m62 48-2-8 1-1h4v-4l-1-1h-2l-1 1-2-1h-5l-1 1h-2a2 2 0 0 0 0 5h4v1a1 1 0 1 0 1 0v-1h2l2 9-4 7-2 1H44a7 7 0 0 0-11-4l-3 4h-1c0-6 5-10 11-10h6v8l1 1h5a5 5 0 0 0 4-5v-4l-1 1v3a3 3 0 0 1-3 3h-4v-8a2 2 0 0 0-2-4h-3v-7c0-2-2-3-3-3h-5a8 8 0 0 0-8 7v5l2 3 2 1c-2 3-4 6-4 10l1 1h4l2 3h-6a1 1 0 0 0 0 2h9a5 5 0 0 0 5-5h12l3-2h1a5 5 0 0 0 1 5H48a1 1 0 0 0 0 2h15a5 5 0 0 0 4-7h2c0-5-3-8-7-9Zm-19-5h3a1 1 0 0 1 0 2h-3a1 1 0 0 1 0-2Zm-14-3v5h11l1-1v-9l-1-1h-5c-3 0-5 2-6 4h9a1 1 0 1 1 0 2h-9Zm2 7h2-2Zm6 15c2 0 3-1 3-3h-6c0 2 1 3 3 3Zm-5-5 2-3 3-1c3 0 5 2 5 4H32Zm31-21h-1a1 1 0 0 0 0 2h1v-2Zm-13 2 1-1h1v1h-2Zm4 0h6v-2h-6v2Zm12 21c0 2-2 3-3 3a3 3 0 0 1-3-5h5l1 2Zm-5-9-3 6h10c-1-3-3-6-7-6Z" fill="#495567"/><path d="M56 46a1 1 0 1 0 0-2 1 1 0 1 0 0 2Z" fill="#000"/></svg>